<svg id="abe284aa-e42e-4dc5-8a2a-36ba98b93641" data-name="fastify" xmlns="http://www.w3.org/2000/svg" viewBox="0 0 32 21">
  <path id="f376026d-bab9-4d2f-9e84-fec18e9a0a0d" data-name="logotype" d="M30.94,3.12l1-2.6V.36L22,3A3.47,3.47,0,0,0,22.67.22s-3.17,2-5.61,2-3.17-.69-6.86.48S5.54,7.44,4.47,8.22.06,11.51.06,11.51h0l3-1A26.5,26.5,0,0,0,.5,13.74l-.08-.08h0s1.41,2.16,2.8,1.76l.47-.2a5.68,5.68,0,0,0,2.09.7,11.87,11.87,0,0,1-1-1.36l.37-.24H5.09l1.15.42-.12-1.08h0l1.13.41-.14-1a2.74,2.74,0,0,1,.42-.21L8.72,8.5l4.86-3.28-.38,1a5.09,5.09,0,0,1-2.84,3l-.77.29c-.58.68-.82.85-1,3.13a2.64,2.64,0,0,1,1.31,0c2.08.56,2.8,3.07,2.24,3.76a8.76,8.76,0,0,1-.9.82H10.4v.68l-.09.07h-.9v.67l-.22.17a4.22,4.22,0,0,1-1.83-.69,5,5,0,0,0,.53,1.63L8,19.7l-.08.06s2.16,1.44,3.52.91c1.2-.48,4.33-3,7-4.11l8.18-2.16,1.07-2.79-6.21,1.64V10.63l7.29-1.92,1.1-2.79L21.49,8.13V5.62Z" fill="#fff"/>
</svg>
